<?xml version="1.0" encoding="utf-8"?>
<!-- Generator: Adobe Illustrator 18.1.1, SVG Export Plug-In . SVG Version: 6.00 Build 0)  -->
<!DOCTYPE svg PUBLIC "-//W3C//DTD SVG 1.1//EN" "http://www.w3.org/Graphics/SVG/1.1/DTD/svg11.dtd">
<svg version="1.1" id="Layer_1" xmlns="http://www.w3.org/2000/svg" xmlns:xlink="http://www.w3.org/1999/xlink" x="0px" y="0px"
	 viewBox="0 0 360 216" enable-background="new 0 0 360 216" xml:space="preserve">
<g>
	<g>
		<path d="M76.9,132.8c11.1-5.6,16.9-18.3,16.9-30.6c0-24.9-18.3-38.2-43.6-38.2c-23.5,0-42.6,12.7-42.8,38.6H33
			c0.4-9.6,7.4-16.4,17-16.4c11.7,0,18.1,7.2,18.1,16.9c0,13-7,18.1-25.1,18.1v22.2c15.3,0.2,24,4,27.1,13.3h26.2
			C94.3,145.9,88.5,137.4,76.9,132.8z"/>
	</g>
	<g>
		<path d="M139.2,119.9h14.6V100h-14.6V89.1c0-5.2,2.5-8.9,8.4-8.9h7V59.9c-4-0.6-8.2-1.2-11.7-1.2c-17.9,0-28.2,6.6-28.2,31.2V100
			h-11.1v19.9h11.1v37h24.5V119.9z"/>
	</g>
	<g>
		<rect x="164.3" y="99.4" width="24.5" height="57.5"/>
	</g>
	<g>
		<rect x="164.3" y="58.8" width="24.5" height="22.2"/>
	</g>
	<g>
		<polygon points="275.2,99.4 250.7,99.4 237,156.9 259.6,156.9 		"/>
	</g>
	<g>
		<polygon points="217.9,99.4 193.4,99.4 209,156.9 231.6,156.9 		"/>
	</g>
	<g>
		<g>
			<path d="M351.5,133.4c0-21.6-16.2-36-38.9-36c-23.4,0-38.9,14.4-38.9,37.6v21.8h77.9V133.4z M326.9,138.3h-28.8v-5.8
				c0-9.4,4.5-15.2,14.4-15.2c9.9,0,14.4,5.8,14.4,15.2V138.3z"/>
		</g>
	</g>
</g>
</svg>
